<svg xmlns="http://www.w3.org/2000/svg" viewBox="0 0 240 240">
  <!-- Fond transparent -->
  <rect width="240" height="240" fill="none"/>
  
  <!-- Symbole Slack -->
  <!-- Cercle Vert -->
  <path d="M56.8 131.3c0 7.5-6.1 13.6-13.6 13.6s-13.6-6.1-13.6-13.6 6.1-13.6 13.6-13.6h13.6v13.6z" fill="#36c5f0"/>
  <path d="M70.4 131.3c0-7.5 6.1-13.6 13.6-13.6s13.6 6.1 13.6 13.6v34c0 7.5-6.1 13.6-13.6 13.6s-13.6-6.1-13.6-13.6v-34z" fill="#36c5f0"/>
  
  <!-- Cercle Rouge -->
  <path d="M84 56.8c-7.5 0-13.6-6.1-13.6-13.6S76.5 29.6 84 29.6s13.6 6.1 13.6 13.6v13.6H84z" fill="#2eb67d"/>
  <path d="M84 70.4c7.5 0 13.6 6.1 13.6 13.6S91.5 97.6 84 97.6H50c-7.5 0-13.6-6.1-13.6-13.6S42.5 70.4 50 70.4h34z" fill="#2eb67d"/>
  
  <!-- Cercle Jaune -->
  <path d="M158.5 84c0-7.5 6.1-13.6 13.6-13.6s13.6 6.1 13.6 13.6-6.1 13.6-13.6 13.6h-13.6V84z" fill="#ecb22e"/>
  <path d="M144.9 84c0 7.5-6.1 13.6-13.6 13.6s-13.6-6.1-13.6-13.6V50c0-7.5 6.1-13.6 13.6-13.6s13.6 6.1 13.6 13.6v34z" fill="#ecb22e"/>
  
  <!-- Cercle Violet -->
  <path d="M131.3 158.4c7.5 0 13.6 6.1 13.6 13.6s-6.1 13.6-13.6 13.6-13.6-6.1-13.6-13.6v-13.6h13.6z" fill="#e01e5a"/>
  <path d="M131.3 144.8c-7.5 0-13.6-6.1-13.6-13.6s6.1-13.6 13.6-13.6h34c7.5 0 13.6 6.1 13.6 13.6s-6.1 13.6-13.6 13.6h-34z" fill="#e01e5a"/>
</svg>
